# xmcd
#
# Track frame offsets:
#	150
#	16393
#	34015
#	50347
#	64872
#	80909
#	98729
#	116644
#	135069
#	150708
#	164189
#	180066
#	193882
#	212351
#	229920
#	244482
#	257831
#	270462
#	286633
#
# Disc length: 3985 seconds
#
# Revision: 0
# Processed by: cddbd v1.5.2PL0 Copyright (c) Steve Scherf et al.
# Submitted via: audiograbber 1.83.01
#
DISCID=040f8f13
DTITLE=Various Artist - Hott Country  153
DYEAR=2008
DGENRE=Country
TTITLE0=Darius Rucker - It Won't Be like This For long
TTITLE1=Aaron Pritchett - How Do I Get There (Radio Edit)
TTITLE2=Jack Ingram - Thats A Man
TTITLE3=Jimmy Wayne - I Will
TTITLE4=Heidi Newfield - Johnny and June
TTITLE5=Aaron Lines - Let's Get Drunk And Fight
TTITLE6=Jewel - Til It Feels Like Cheating
TTITLE7=Rio Grand - God's Got A Bigger Plan
TTITLE8=Bucky Covington - I'll Walk
TTITLE9=Craig Moritz - Hey Y'all
TTITLE10=Crystal Shawanda - My Roots Are Showing
TTITLE11=Cross Canadian Ragweed - Record Exec
TTITLE12=Steve Holly - Might Have Been
TTITLE13=Leann Rimes - What I Cannot Change
TTITLE14=Craig Moritz - Gimme Last Night
TTITLE15=Kenny Chesney - Down The Road
TTITLE16=Stompin' Tom Connors - My Hockey Mom (New 2008 Version)
TTITLE17=Blake Shelton - She Wouldn't Be Gone (Album Ve
TTITLE18=Johnny Cash and June Carter - Jackson ( 1967 )
EXTD=November 2008
EXTT0=
EXTT1=
EXTT2=
EXTT3=
EXTT4=
EXTT5=
EXTT6=
EXTT7=
EXTT8=
EXTT9=
EXTT10=
EXTT11=
EXTT12=
EXTT13=
EXTT14=
EXTT15=
EXTT16=
EXTT17=
EXTT18=
PLAYORDER=
